<svg width="146" height="121" viewBox="0 0 146 121" fill="none" xmlns="http://www.w3.org/2000/svg">
<g filter="url(#filter0_dddd)">
<path d="M44.2322 18.752H47.2322V15.752H44.2322V18.752ZM41.0642 50.432L38.9757 48.2783L38.9592 48.2944L38.9428 48.3107L41.0642 50.432ZM24.9362 52.496L25.8848 49.65L25.8717 49.6456L25.8584 49.6413L24.9362 52.496ZM19.8482 49.664L17.352 47.9999L15.9341 50.1267L17.8089 51.8643L19.8482 49.664ZM21.5762 47.072L23.5765 44.8363L20.9987 42.5298L19.08 45.4079L21.5762 47.072ZM25.9922 49.616L24.9964 52.4459L25.0045 52.4488L25.0126 52.4516L25.9922 49.616ZM38.5682 48.272L36.4698 46.128L36.4582 46.1393L36.4468 46.1507L38.5682 48.272ZM40.8242 38.144H43.8242V28.1523L38.3203 36.4915L40.8242 38.144ZM36.6482 41.792L35.3467 39.089L35.3368 39.0938L35.3269 39.0986L36.6482 41.792ZM24.5042 41.504L23.0584 44.1326L23.0843 44.1469L23.1105 44.1606L24.5042 41.504ZM19.9442 37.136L17.3449 38.6339L17.36 38.6601L17.3756 38.686L19.9442 37.136ZM19.9442 24.416L17.3756 22.866L17.3657 22.8824L17.3561 22.8988L19.9442 24.416ZM24.5042 20.096L25.9159 22.7431L24.5042 20.096ZM36.7922 19.856L38.1338 17.1727L36.7922 19.856ZM40.9682 23.6L38.4494 25.2298L43.9682 33.7587V23.6H40.9682ZM40.9682 18.752V15.752H37.9682V18.752H40.9682ZM36.2642 38.864L37.6519 41.5238L37.6744 41.512L37.6967 41.4999L36.2642 38.864ZM39.6722 35.552L37.0894 34.0258L37.0764 34.0478L37.0638 34.07L39.6722 35.552ZM39.6722 26L37.0638 27.482L37.0839 27.5174L37.105 27.5523L39.6722 26ZM36.2642 22.736L34.8072 25.3585L34.8416 25.3776L34.8765 25.3958L36.2642 22.736ZM26.3762 22.688L24.9885 20.0282L24.9764 20.0345L24.9644 20.0409L26.3762 22.688ZM22.9682 25.952L20.3854 24.4258L20.3724 24.4478L20.3598 24.47L22.9682 25.952ZM22.9682 35.552L20.3598 37.034L20.3724 37.0562L20.3854 37.0782L22.9682 35.552ZM26.3762 38.864L24.9192 41.4865L24.9536 41.5056L24.9885 41.5238L26.3762 38.864ZM41.2322 18.752V40.928H47.2322V18.752H41.2322ZM41.2322 40.928C41.2322 44.7773 40.2828 47.0108 38.9757 48.2783L43.1526 52.5857C46.0695 49.7572 47.2322 45.6547 47.2322 40.928H41.2322ZM38.9428 48.3107C37.6316 49.622 35.3852 50.552 31.6082 50.552V56.552C36.2791 56.552 40.3368 55.402 43.1855 52.5533L38.9428 48.3107ZM31.6082 50.552C29.5786 50.552 27.6761 50.247 25.8848 49.65L23.9875 55.342C26.4202 56.153 28.9657 56.552 31.6082 56.552V50.552ZM25.8584 49.6413C24.1037 49.0744 22.8162 48.3245 21.8875 47.4637L17.8089 51.8643C19.5041 53.4355 21.6087 54.5736 24.0139 55.3507L25.8584 49.6413ZM22.3443 51.3281L24.0723 48.7361L19.08 45.4079L17.352 47.9999L22.3443 51.3281ZM19.5758 49.3077C21.1183 50.6879 22.9432 51.7235 24.9964 52.4459L26.9879 46.7861C25.5851 46.2925 24.466 45.6321 23.5765 44.8363L19.5758 49.3077ZM25.0126 52.4516C27.0975 53.1718 29.2693 53.528 31.5122 53.528V47.528C29.915 47.528 28.4068 47.2762 26.9717 46.7804L25.0126 52.4516ZM31.5122 53.528C35.1116 53.528 38.3939 52.6889 40.6895 50.3933L36.4468 46.1507C35.7344 46.8631 34.3127 47.528 31.5122 47.528V53.528ZM40.6665 50.416C42.9779 48.1539 43.8242 44.9097 43.8242 41.36H37.8242C37.8242 44.0823 37.1665 45.4461 36.4698 46.128L40.6665 50.416ZM43.8242 41.36V38.144H37.8242V41.36H43.8242ZM38.3203 36.4915C37.563 37.6389 36.5866 38.492 35.3467 39.089L37.9496 44.495C40.1657 43.428 41.9733 41.8491 43.328 39.7965L38.3203 36.4915ZM35.3269 39.0986C34.0823 39.7092 32.653 40.04 30.9842 40.04V46.04C33.4753 46.04 35.822 45.5388 37.9694 44.4854L35.3269 39.0986ZM30.9842 40.04C29.0647 40.04 27.3883 39.6292 25.8978 38.8474L23.1105 44.1606C25.524 45.4268 28.1677 46.04 30.9842 46.04V40.04ZM25.9499 38.8754C24.4873 38.0709 23.3568 36.9848 22.5127 35.586L17.3756 38.686C18.7715 40.9992 20.681 42.8251 23.0584 44.1326L25.9499 38.8754ZM22.5434 35.6381C21.7405 34.2447 21.3122 32.6412 21.3122 30.752H15.3122C15.3122 33.5988 15.9718 36.2513 17.3449 38.6339L22.5434 35.6381ZM21.3122 30.752C21.3122 28.8621 21.7406 27.2836 22.5323 25.9332L17.3561 22.8988C15.9717 25.2604 15.3122 27.9059 15.3122 30.752H21.3122ZM22.5127 25.966C23.352 24.5752 24.4715 23.5134 25.9159 22.7431L23.0924 17.4489C20.6968 18.7266 18.7763 20.5448 17.3756 22.866L22.5127 25.966ZM25.9159 22.7431C27.358 21.9739 29.0249 21.56 30.9842 21.56V15.56C28.1434 15.56 25.4903 16.17 23.0924 17.4489L25.9159 22.7431ZM30.9842 21.56C32.7142 21.56 34.183 21.9055 35.4505 22.5393L38.1338 17.1727C35.9453 16.0785 33.5421 15.56 30.9842 15.56V21.56ZM35.4505 22.5393C36.696 23.162 37.6828 24.0449 38.4494 25.2298L43.4869 21.9702C42.1416 19.8911 40.3443 18.278 38.1338 17.1727L35.4505 22.5393ZM43.9682 23.6V18.752H37.9682V23.6H43.9682ZM40.9682 21.752H44.2322V15.752H40.9682V21.752ZM31.3202 43.016C33.5788 43.016 35.7104 42.5367 37.6519 41.5238L34.8765 36.2042C33.8739 36.7273 32.7095 37.016 31.3202 37.016V43.016ZM37.6967 41.4999C39.6428 40.4422 41.1941 38.9462 42.2805 37.034L37.0638 34.07C36.5503 34.9738 35.8296 35.6858 34.8316 36.2281L37.6967 41.4999ZM42.2549 37.0782C43.3858 35.1644 43.9202 33.0279 43.9202 30.752H37.9202C37.9202 32.0601 37.6225 33.1236 37.0894 34.0258L42.2549 37.0782ZM43.9202 30.752C43.9202 28.4771 43.386 26.3442 42.2394 24.4477L37.105 27.5523C37.6223 28.4078 37.9202 29.4429 37.9202 30.752H43.9202ZM42.2805 24.518C41.1879 22.5949 39.6219 21.1041 37.6519 20.0762L34.8765 25.3958C35.8504 25.9039 36.5564 26.5891 37.0638 27.482L42.2805 24.518ZM37.7211 20.1135C35.7813 19.0359 33.6203 18.536 31.3202 18.536V24.536C32.732 24.536 33.867 24.8361 34.8072 25.3585L37.7211 20.1135ZM31.3202 18.536C29.0615 18.536 26.9299 19.0153 24.9885 20.0282L27.7639 25.3478C28.7664 24.8247 29.9308 24.536 31.3202 24.536V18.536ZM24.9644 20.0409C23.0375 21.0686 21.4968 22.5449 20.3854 24.4258L25.5509 27.4782C26.1035 26.5431 26.8348 25.8434 27.7879 25.3351L24.9644 20.0409ZM20.3598 24.47C19.2765 26.3766 18.7682 28.4971 18.7682 30.752H24.7682C24.7682 29.4229 25.0598 28.3434 25.5765 27.434L20.3598 24.47ZM18.7682 30.752C18.7682 33.0069 19.2765 35.1274 20.3598 37.034L25.5765 34.07C25.0598 33.1606 24.7682 32.0811 24.7682 30.752H18.7682ZM20.3854 37.0782C21.4907 38.9487 23.0168 40.4295 24.9192 41.4865L27.8331 36.2415C26.8556 35.6985 26.1097 34.9714 25.5509 34.0258L20.3854 37.0782ZM24.9885 41.5238C26.9299 42.5367 29.0615 43.016 31.3202 43.016V37.016C29.9308 37.016 28.7664 36.7273 27.7639 36.2042L24.9885 41.5238ZM57.5064 42.608L56.0134 45.2101L56.0296 45.2194L56.0458 45.2284L57.5064 42.608ZM52.8984 38L50.2963 39.493L52.8984 38ZM52.8984 24.752L50.2963 23.259V23.259L52.8984 24.752ZM57.5064 20.192L56.0458 17.5716L57.5064 20.192ZM70.6584 20.192L72.119 17.5716L70.6584 20.192ZM75.2184 24.752L72.598 26.2126L72.607 26.2288L72.6163 26.245L75.2184 24.752ZM75.2184 38L72.6163 36.507L72.607 36.5232L72.598 36.5394L75.2184 38ZM70.6584 42.608L72.119 45.2284L72.1353 45.2194L72.1514 45.2101L70.6584 42.608ZM68.8824 40.016L70.3644 42.6244L70.3739 42.619L70.3832 42.6136L68.8824 40.016ZM72.2424 36.512L74.891 37.9208L72.2424 36.512ZM72.2424 26.24L74.891 24.8312L72.2424 26.24ZM68.8824 22.784L67.3562 25.3668L67.3906 25.3871L67.4255 25.4065L68.8824 22.784ZM59.2344 22.784L60.7164 25.3924L60.7259 25.387L60.7352 25.3816L59.2344 22.784ZM55.8744 26.24L53.2493 24.7878L53.2374 24.8094L53.2258 24.8312L55.8744 26.24ZM55.8744 36.512L53.2258 37.9208L53.2374 37.9426L53.2493 37.9642L55.8744 36.512ZM59.2344 40.016L57.7082 42.5988L57.7426 42.6191L57.7775 42.6385L59.2344 40.016ZM64.0824 41.24C62.1153 41.24 60.4336 40.805 58.967 39.9876L56.0458 45.2284C58.4832 46.587 61.1855 47.24 64.0824 47.24V41.24ZM58.9994 40.0059C57.5089 39.1507 56.3557 37.9975 55.5005 36.507L50.2963 39.493C51.6811 41.9065 53.5999 43.8253 56.0134 45.2101L58.9994 40.0059ZM55.5005 36.507C54.6655 35.0517 54.2184 33.3672 54.2184 31.376H48.2184C48.2184 34.3128 48.8913 37.0443 50.2963 39.493L55.5005 36.507ZM54.2184 31.376C54.2184 29.3848 54.6655 27.7003 55.5005 26.245L50.2963 23.259C48.8913 25.7077 48.2184 28.4392 48.2184 31.376H54.2184ZM55.5005 26.245C56.3514 24.762 57.4943 23.6333 58.967 22.8124L56.0458 17.5716C53.6145 18.9267 51.6854 20.838 50.2963 23.259L55.5005 26.245ZM58.967 22.8124C60.4336 21.995 62.1153 21.56 64.0824 21.56V15.56C61.1855 15.56 58.4832 16.213 56.0458 17.5716L58.967 22.8124ZM64.0824 21.56C66.0495 21.56 67.7312 21.995 69.1978 22.8124L72.119 17.5716C69.6816 16.213 66.9793 15.56 64.0824 15.56V21.56ZM69.1978 22.8124C70.663 23.6291 71.7813 24.7474 72.598 26.2126L77.8388 23.2914C76.4795 20.8526 74.5578 18.9309 72.119 17.5716L69.1978 22.8124ZM72.6163 26.245C73.4513 27.7003 73.8984 29.3848 73.8984 31.376H79.8984C79.8984 28.4392 79.2255 25.7077 77.8205 23.259L72.6163 26.245ZM73.8984 31.376C73.8984 33.3672 73.4513 35.0517 72.6163 36.507L77.8205 39.493C79.2255 37.0443 79.8984 34.3128 79.8984 31.376H73.8984ZM72.598 36.5394C71.7771 38.0121 70.6484 39.155 69.1654 40.0059L72.1514 45.2101C74.5724 43.821 76.4837 41.8919 77.8388 39.4606L72.598 36.5394ZM69.1978 39.9876C67.7312 40.805 66.0495 41.24 64.0824 41.24V47.24C66.9793 47.24 69.6816 46.587 72.119 45.2284L69.1978 39.9876ZM64.0824 44.216C66.3373 44.216 68.4578 43.7077 70.3644 42.6244L67.4004 37.4076C66.491 37.9243 65.4115 38.216 64.0824 38.216V44.216ZM70.3832 42.6136C72.3219 41.4935 73.834 39.908 74.891 37.9208L69.5938 35.1032C69.0508 36.124 68.3229 36.8745 67.3816 37.4184L70.3832 42.6136ZM74.891 37.9208C75.9497 35.9305 76.4424 33.724 76.4424 31.376H70.4424C70.4424 32.868 70.1351 34.0855 69.5938 35.1032L74.891 37.9208ZM76.4424 31.376C76.4424 29.028 75.9497 26.8215 74.891 24.8312L69.5938 27.6488C70.1351 28.6665 70.4424 29.884 70.4424 31.376H76.4424ZM74.891 24.8312C73.829 22.8345 72.3033 21.2526 70.3393 20.1615L67.4255 25.4065C68.3415 25.9154 69.0558 26.6375 69.5938 27.6488L74.891 24.8312ZM70.4086 20.2012C68.4948 19.0703 66.3583 18.536 64.0824 18.536V24.536C65.3905 24.536 66.454 24.8337 67.3562 25.3668L70.4086 20.2012ZM64.0824 18.536C61.8057 18.536 59.665 19.0704 57.7336 20.1864L60.7352 25.3816C61.6838 24.8335 62.7751 24.536 64.0824 24.536V18.536ZM57.7524 20.1756C55.8344 21.2654 54.3315 22.8315 53.2493 24.7878L58.4995 27.6922C59.0813 26.6405 59.8185 25.9026 60.7164 25.3924L57.7524 20.1756ZM53.2258 24.8312C52.1671 26.8215 51.6744 29.028 51.6744 31.376H57.6744C57.6744 29.884 57.9817 28.6665 58.523 27.6488L53.2258 24.8312ZM51.6744 31.376C51.6744 33.724 52.1671 35.9305 53.2258 37.9208L58.523 35.1032C57.9817 34.0855 57.6744 32.868 57.6744 31.376H51.6744ZM53.2493 37.9642C54.3265 39.9114 55.8158 41.4805 57.7082 42.5988L60.7606 37.4332C59.837 36.8875 59.0863 36.1206 58.4995 35.0598L53.2493 37.9642ZM57.7775 42.6385C59.7017 43.7075 61.8266 44.216 64.0824 44.216V38.216C62.7542 38.216 61.6471 37.9245 60.6913 37.3935L57.7775 42.6385ZM44.5202 103L42.0753 104.739L42.9723 106H44.5202V103ZM36.8402 92.2L39.285 90.4614L38.2625 89.0235L36.5089 89.2183L36.8402 92.2ZM25.1282 92.344V89.344H22.1282V92.344H25.1282ZM25.1282 103V106H28.1282V103H25.1282ZM21.5762 103H18.5762V106H21.5762V103ZM21.5762 69.4V66.4H18.5762V69.4H21.5762ZM44.2322 72.472L42.2997 74.7667H42.2998L44.2322 72.472ZM45.8642 87.592L43.449 85.8124L43.4436 85.8198L45.8642 87.592ZM40.2002 91.48L39.2737 88.6266L35.3835 89.8897L37.7569 93.2208L40.2002 91.48ZM48.4082 103V106H54.2293L50.8514 101.259L48.4082 103ZM41.6882 87.112L43.6128 89.4132H43.6128L41.6882 87.112ZM41.6882 74.68L39.7635 76.9812L39.7759 76.9916L39.7884 77.0019L41.6882 74.68ZM25.1282 72.472V69.472H22.1282V72.472H25.1282ZM25.1282 89.32H22.1282V92.32H25.1282V89.32ZM46.965 101.261L39.285 90.4614L34.3953 93.9386L42.0753 104.739L46.965 101.261ZM36.5089 89.2183C35.762 89.3013 34.9768 89.344 34.1522 89.344V95.344C35.1835 95.344 36.1904 95.2907 37.1715 95.1816L36.5089 89.2183ZM34.1522 89.344H25.1282V95.344H34.1522V89.344ZM22.1282 92.344V103H28.1282V92.344H22.1282ZM25.1282 100H21.5762V106H25.1282V100ZM24.5762 103V69.4H18.5762V103H24.5762ZM21.5762 72.4H34.1522V66.4H21.5762V72.4ZM34.1522 72.4C37.9805 72.4 40.5718 73.3116 42.2997 74.7667L46.1646 70.1773C43.0285 67.5364 38.8998 66.4 34.1522 66.4V72.4ZM42.2998 74.7667C43.9638 76.168 44.8802 78.0945 44.8802 80.92H50.8802C50.8802 76.5775 49.3645 72.872 46.1646 70.1773L42.2998 74.7667ZM44.8802 80.92C44.8802 83.0087 44.3552 84.5826 43.449 85.8124L48.2793 89.3716C50.0611 86.9534 50.8802 84.0793 50.8802 80.92H44.8802ZM43.4436 85.8198C42.563 87.0225 41.2415 87.9877 39.2737 88.6266L41.1266 94.3334C44.0868 93.3723 46.5413 91.7455 48.2847 89.3642L43.4436 85.8198ZM37.7569 93.2208L45.9649 104.741L50.8514 101.259L42.6434 89.7392L37.7569 93.2208ZM48.4082 100H44.5202V106H48.4082V100ZM34.0562 92.32C37.7784 92.32 41.1156 91.5018 43.6128 89.4132L39.7635 84.8108C38.7407 85.6662 36.9899 86.32 34.0562 86.32V92.32ZM43.6128 89.4132C46.1657 87.2781 47.3282 84.3084 47.3282 80.92H41.3282C41.3282 82.8436 40.7307 84.0019 39.7635 84.8108L43.6128 89.4132ZM47.3282 80.92C47.3282 77.4957 46.1827 74.4811 43.5879 72.3581L39.7884 77.0019C40.7137 77.7589 41.3282 78.9043 41.3282 80.92H47.3282ZM43.6128 72.3788C41.1156 70.2902 37.7784 69.472 34.0562 69.472V75.472C36.9899 75.472 38.7407 76.1258 39.7635 76.9812L43.6128 72.3788ZM34.0562 69.472H25.1282V75.472H34.0562V69.472ZM22.1282 72.472V89.32H28.1282V72.472H22.1282ZM25.1282 92.32H34.0562V86.32H25.1282V92.32ZM77.3357 94.024L80.0722 92.7947L79.2768 91.024H77.3357V94.024ZM58.6157 94.024V91.024H56.6745L55.8791 92.7947L58.6157 94.024ZM54.5837 103V106H56.5248L57.3202 104.229L54.5837 103ZM50.8877 103L48.1592 101.753L46.2176 106H50.8877V103ZM66.2477 69.4V66.4H64.3205L63.5192 68.1527L66.2477 69.4ZM69.7517 69.4L72.4801 68.1527L71.6788 66.4H69.7517V69.4ZM85.1117 103V106H89.7817L87.8401 101.753L85.1117 103ZM81.3677 103L78.6311 104.229L79.4265 106H81.3677V103ZM76.0397 91.144V94.144H80.6659L78.7787 89.9202L76.0397 91.144ZM67.9757 73.096L70.7147 71.8722L67.9757 65.742L65.2366 71.8722L67.9757 73.096ZM59.9117 91.144L57.1726 89.9202L55.2854 94.144H59.9117V91.144ZM77.3357 91.024H58.6157V97.024H77.3357V91.024ZM55.8791 92.7947L51.8471 101.771L57.3202 104.229L61.3522 95.2533L55.8791 92.7947ZM54.5837 100H50.8877V106H54.5837V100ZM53.6161 104.247L68.9761 70.6473L63.5192 68.1527L48.1592 101.753L53.6161 104.247ZM66.2477 72.4H69.7517V66.4H66.2477V72.4ZM67.0232 70.6473L82.3832 104.247L87.8401 101.753L72.4801 68.1527L67.0232 70.6473ZM85.1117 100H81.3677V106H85.1117V100ZM84.1042 101.771L80.0722 92.7947L74.5991 95.2533L78.6311 104.229L84.1042 101.771ZM78.7787 89.9202L70.7147 71.8722L65.2366 74.3198L73.3006 92.3678L78.7787 89.9202ZM65.2366 71.8722L57.1726 89.9202L62.6507 92.3678L70.7147 74.3198L65.2366 71.8722ZM59.9117 94.144H76.0397V88.144H59.9117V94.144ZM90.6699 69.4V66.4H87.6699V69.4H90.6699ZM94.2219 69.4H97.2219V66.4H94.2219V69.4ZM94.2219 103V106H97.2219V103H94.2219ZM90.6699 103H87.6699V106H90.6699V103ZM90.6699 72.4H94.2219V66.4H90.6699V72.4ZM91.2219 69.4V103H97.2219V69.4H91.2219ZM94.2219 100H90.6699V106H94.2219V100ZM93.6699 103V69.4H87.6699V103H93.6699ZM105.154 69.4V66.4H102.154V69.4H105.154ZM108.706 69.4H111.706V66.4H108.706V69.4ZM108.706 99.928H105.706V102.928H108.706V99.928ZM127.522 99.928H130.522V96.928H127.522V99.928ZM127.522 103V106H130.522V103H127.522ZM105.154 103H102.154V106H105.154V103ZM105.154 72.4H108.706V66.4H105.154V72.4ZM105.706 69.4V99.928H111.706V69.4H105.706ZM108.706 102.928H127.522V96.928H108.706V102.928ZM124.522 99.928V103H130.522V99.928H124.522ZM127.522 100H105.154V106H127.522V100ZM108.154 103V69.4H102.154V103H108.154Z" fill="#0FD80B"/>
</g>
<defs>
<filter id="filter0_dddd" x="0.312164" y="0.559998" width="145.21" height="120.44" filterUnits="userSpaceOnUse" color-interpolation-filters="sRGB">
<feFlood flood-opacity="0" result="BackgroundImageFix"/>
<feColorMatrix in="SourceAlpha" type="matrix" values="0 0 0 0 0 0 0 0 0 0 0 0 0 0 0 0 0 0 127 0"/>
<feOffset dy="5"/>
<feGaussianBlur stdDeviation="5"/>
<feColorMatrix type="matrix" values="0 0 0 0 0.329412 0 0 0 0 0.862745 0 0 0 0 0.94902 0 0 0 0.25 0"/>
<feBlend mode="normal" in2="BackgroundImageFix" result="effect1_dropShadow"/>
<feColorMatrix in="SourceAlpha" type="matrix" values="0 0 0 0 0 0 0 0 0 0 0 0 0 0 0 0 0 0 127 0"/>
<feOffset dy="-5"/>
<feGaussianBlur stdDeviation="5"/>
<feColorMatrix type="matrix" values="0 0 0 0 0.329412 0 0 0 0 0.862745 0 0 0 0 0.94902 0 0 0 0.25 0"/>
<feBlend mode="normal" in2="effect1_dropShadow" result="effect2_dropShadow"/>
<feColorMatrix in="SourceAlpha" type="matrix" values="0 0 0 0 0 0 0 0 0 0 0 0 0 0 0 0 0 0 127 0"/>
<feOffset dx="5"/>
<feGaussianBlur stdDeviation="5"/>
<feColorMatrix type="matrix" values="0 0 0 0 0.329412 0 0 0 0 0.862745 0 0 0 0 0.94902 0 0 0 0.25 0"/>
<feBlend mode="normal" in2="effect2_dropShadow" result="effect3_dropShadow"/>
<feColorMatrix in="SourceAlpha" type="matrix" values="0 0 0 0 0 0 0 0 0 0 0 0 0 0 0 0 0 0 127 0"/>
<feOffset dx="-5"/>
<feGaussianBlur stdDeviation="5"/>
<feColorMatrix type="matrix" values="0 0 0 0 0.329412 0 0 0 0 0.862745 0 0 0 0 0.94902 0 0 0 0.25 0"/>
<feBlend mode="normal" in2="effect3_dropShadow" result="effect4_dropShadow"/>
<feBlend mode="normal" in="SourceGraphic" in2="effect4_dropShadow" result="shape"/>
</filter>
</defs>
</svg>
