<svg width="376" height="335" viewBox="0 0 376 335" fill="none" xmlns="http://www.w3.org/2000/svg">
<path d="M175.415 85.618C48.9483 72.7656 56.2046 176.874 133.319 193.804C260.763 221.783 119.438 362.116 83.1565 294.728" stroke="white" stroke-width="5"/>
<path d="M204.138 85.1492C198.716 84.0823 196.289 77.6988 199.622 73.2715L213.505 54.8281C214.409 53.6275 215.651 52.7251 217.07 52.2378L322.188 16.1404C326.105 14.7951 330.362 16.8839 331.694 20.8058L339.333 43.2866C340.666 47.2085 338.571 51.4784 334.653 52.8237L229.169 89.0468C227.922 89.475 226.585 89.5666 225.294 89.3124L204.138 85.1492Z" stroke="white" stroke-width="5"/>
<path d="M331.759 20.5C330.439 16.6159 332.479 12.5701 336.2 11.5042C339.997 10.4166 344.417 9.33379 348.468 8.78617C352.658 8.21978 355.942 8.30509 357.799 9.10214C359.302 9.74766 360.908 11.2459 362.435 13.5742C363.937 15.8645 365.223 18.7478 366.179 21.8151C367.133 24.8776 367.731 28.0382 367.903 30.8493C368.079 33.7168 367.798 35.9803 367.207 37.3967C366.944 38.0263 366.283 38.8816 365.044 39.9076C363.839 40.9059 362.262 41.9237 360.431 42.9282C356.772 44.9361 352.354 46.7542 348.489 48.1752C344.908 49.4919 340.942 47.5247 339.646 43.7094L331.759 20.5Z" stroke="white" stroke-width="5"/>
</svg>
