<svg width="376" height="335" viewBox="0 0 376 335" fill="none" xmlns="http://www.w3.org/2000/svg">
<path d="M200.129 85.618C326.595 72.7656 319.339 176.874 242.224 193.804C114.781 221.783 256.106 362.116 292.387 294.728" stroke="white" stroke-width="5"/>
<path d="M171.406 85.1492C176.828 84.0823 179.255 77.6988 175.922 73.2715L162.039 54.8281C161.135 53.6275 159.893 52.7251 158.474 52.2378L53.3561 16.1404C49.4385 14.7951 45.1824 16.8839 43.8497 20.8058L36.2105 43.2866C34.8779 47.2085 36.9733 51.4784 40.8909 52.8237L146.375 89.0468C147.622 89.475 148.958 89.5666 150.25 89.3124L171.406 85.1492Z" stroke="white" stroke-width="5"/>
<path d="M43.7845 20.5C45.1043 16.6159 43.0651 12.5701 39.3438 11.5042C35.5465 10.4166 31.1268 9.33379 27.0759 8.78617C22.8862 8.21978 19.6014 8.30509 17.745 9.10214C16.2415 9.74766 14.6359 11.2459 13.1091 13.5742C11.6071 15.8645 10.3204 18.7478 9.36479 21.8151C8.41059 24.8776 7.81298 28.0382 7.64033 30.8493C7.46421 33.7168 7.74546 35.9803 8.33698 37.3967C8.59988 38.0263 9.26103 38.8816 10.4995 39.9076C11.7045 40.9059 13.2818 41.9237 15.1125 42.9282C18.7718 44.9361 23.1901 46.7542 27.0545 48.1752C30.6355 49.4919 34.6013 47.5247 35.8978 43.7094L43.7845 20.5Z" stroke="white" stroke-width="5"/>
</svg>
